<svg xmlns="http://www.w3.org/2000/svg" viewBox="0 0 1000 1000"><path d="M356.718 814.771c-11.041 8.713-21.184 18.897-31.783 28.166l-74.774 64.93c-10.257 8.787-20.228 19.154-31.33 26.797-11.136 7.67-26.269 5.27-27.313-8.996-.34-4.65.484-9.801 1.14-14.413l13.054-83.593c4.871-30.193 10.805-59.851-3.002-88.857-4.11-8.635-10.246-16.502-15.598-24.412-14.477-21.397-24.272-43.617-29.932-68.754l-2.822-14.537c-.412-2.324.217-4.799-2.115-5.961-20.709-10.322-41.826-12.074-60.03-30.127-8.819-8.744-8.14-17.047-8.156-28.883-25.549-4.453-45.55-29.625-49.14-54.457-1.258-8.697-.823-17.755-.826-26.533-.01-26.367-.814-52.09 21.401-70.94 4.587-3.893 21.576-15.538 27.485-14.614 1.103.172.443.308 1.476-.174 1.748-36.373 22.503-43.642 53.177-53.969l11.397-3.652c1.09-.314 3.511-.64 4.402-1.2.32-.202 2.923-16.788 3.315-18.815 14.66-76 56.91-114.395 126.138-137.96 48.94-16.658 101.26-24.034 152.695-27.296l49.54-1.68-.278-8.618c-2.096-1.77-3.723-2.103-6.06-3.246-39.848-19.483-31.612-83.26 19.435-88.098 44.51-2.473 66.558 58.533 27.376 83.97-2.908 1.888-7.07 3.114-9.55 5.337l-.06 10.139 29.958.996c58.803 3.382 118.85 9.79 174.763 29.265 85.049 29.622 111.576 74.31 126.44 156.456 21.107 2.994 62.238 19.037 66.991 40.746l.164.78c3.393 15.347-4.244 13.992 8.946 18.417 36.8 12.348 42.351 39.737 42.431 73.744.04 16.742 1.436 35.178-4.14 51.2-5.918 17-19.485 32.308-37.754 35.66-1.953.357-4.293.367-6.082 1.234l-.615 15.056c-2.975 26.744-40.58 37.83-62.098 43.703-13.976 3.817-7.6 1.696-11.248 20.018-23.742 119.273-119 133.959-221.017 144.755l-78.41 5.987-82.695.1c-45.53-.094-65.404-9.817-104.896 22.33Zm140.576-729.29c-19.205 7.314-16.178 33.121 5.828 30.884 19.931-5.098 14.183-31.538-5.828-30.884Zm-19.537 99.313c-55.223.364-120.787 8.225-173.234 23.64-87.764 25.79-112.597 67.42-123.624 151.505l-6.431 68.486-.155 96.751c.106 11.483 1.536 22.979 2.387 34.428 2.748 36.945 4.89 75.94 19.833 110.35 6.224 14.333 15.199 26.148 23.87 38.964 26.96 39.84 22.967 77.848 16.022 122.623l-9.502 56.642 73.006-63.648c26.193-23.168 51.008-50.2 85.672-60.088 12.714-2.888 23.916-3.652 36.992-3.61l26.166.298c10.197.463 18.546 1.355 29.398 1.377l52.848-.067c4.117-.168 8.261-1.007 12.425-1.203l34.516-1.398 84.406-9.223c112.162-16.99 145.414-43.222 158.277-162.05l5.316-64.402.197-85.205c-.101-3.067-.714-6.074-.873-9.133l-5.185-61.096c-10.389-82.402-27.334-129.204-115.695-157.624-42.11-13.543-84.41-19.044-128.322-22.91l-42.63-3.268-55.68-.14ZM850.86 372.58l5.889 60.775.072 88.24-5.78 69.545 23.743-9.084c3.762-1.76 7.539-3.172 10.994-5.47l-.533-187.604-34.385-16.402Zm-703.214 1.686-18.632 7.69c-4.566 2.058-9.428 4.198-13.34 7.384-1.169 8.412-1.443 16.943-1.968 25.416l-1.396 115.76c.36 7.49 2.156 43.903 2.983 44.87 2.627 3.072 8.18 5.47 11.857 7.133l13.163 5.576c2.801 1.076 6.036 1.945 8.504 3.672l-5.008-62.847-.27-48.694c.008-23.166-.367-46.363 1.797-69.457l3.225-33.119c.163-1.392.801-2.382-.17-3.466l-.745.082ZM917.44 431.11c2.06 16.4 1.352 33.3 1.37 49.793.015 16.666.708 33.707-.858 50.303 4.052-1.834 7.44-4.46 10.69-7.465 9.605-12.592 7.792-29.729 7.784-44.664-.011-18.97-.03-34.22-16.99-46.693l-1.996-1.274Zm-835.368 2.238c-7.55 3.874-13.498 8.877-15.826 16.893l-.549 2.068c-3.887 14.994-2.998 57.239 4.433 69.844l2.724 3.986c2.536 3.004 6.616 5.254 8.52 8.42l.698-101.21Z" fill="#ffffff" class="fill-000000"></path><path d="M507.075 728.46c-59.03.306-116.472-14.85-161.773-54.888-45.719-40.408-65.172-100.921-72.799-159.786l-2.586-25.96c-.308-3.51-.894-7.009-1.056-10.532l-.194-62.477c.047-4.937-.224-10.373 1.127-15.16l.213-.732c3.791-14.182 22.844-22.727 34.473-29.393 49.603-28.435 121.915-54.097 180.44-55.742l-.044-17.12c-1.6-1.284-3.362-1.48-5.215-2.179-34.547-13.043-32.805-71.494 15.256-79.017 48.517-4.451 68.19 59.16 27.066 77.432-2.166.962-4.644 1.183-6.889 2.087l-.097 18.588c62.025 2.28 139.88 28.961 191.038 61.434 12.184 7.732 24.81 12.289 25.57 28.005l.233 36.432c-.002 14.336.42 28.877-.494 43.176l-1.608 14.943c-5.96 57.724-21.81 118.955-61.869 162.681-40.71 44.442-101.738 65.61-160.792 68.207Zm-10.826-482.752c-16.201 6.608-11.694 25.223 6.511 22.733 18.028-6.133 11.053-25.416-6.511-22.733Zm-7.723 97.611c-51.68 3.852-99.818 18.715-146.232 40.934l-23.463 12.074c-2.857 1.639-17.847 9.95-19.232 11.555l.846 79.763c3.716 51.633 15.863 109.62 51.218 149.24 30.588 34.28 85.129 58.625 131.484 61.15l30.156.23c109.25-9.2 165.809-72.614 182.506-176.782l4.644-38.816c1.203-9.662.783-19.969.801-29.71l-.123-44.75c-1.832-2.108-3.645-2.439-5.937-3.765l-13.59-8.402c-49.387-28.512-108.375-48.402-165.35-52.47l-27.728-.25Z" fill="#ffffff" class="fill-000000"></path><path d="M410.06 513.682c-61.135.867-63.905-84.88-4.334-90.636 52.286-3.85 67.449 81.779 4.333 90.636Zm-4.512-60.043c-19.393 6.729-13.658 31.623 3.853 28.704 18.05-5.819 15.026-29.008-3.853-28.704ZM597.772 513.028c-11.24 1.254-22.623-1.998-31.803-8.498-32.666-23.125-19.695-74.12 22.156-80.56 58.268-5.993 68.877 80.673 9.647 89.058Zm-5.69-58.82c-18.646 3.992-16.992 27.472 1.301 28.142 18.63-3.545 17.455-26.623-1.3-28.142ZM597.002 615.414c-50.48 31.225-121.931 34.1-175.935 9.579-9-4.088-25.386-10.48-28.795-20.319-3.35-9.662 2.957-16.726 11.952-19.175 8.714-.336 14.544 4.867 22.01 8.59 45.034 22.458 98.905 22.038 144.323 1.31 9.889-4.512 25.602-17.568 34.961-4.549 7.299 10.154-.166 18.865-8.516 24.564Z" fill="#ffffff" class="fill-000000"></path></svg>